<?xml version="1.0" encoding="UTF-8" standalone="no"?>
<!DOCTYPE svg PUBLIC "-//W3C//DTD SVG 1.1//EN"
 "http://www.w3.org/Graphics/SVG/1.1/DTD/svg11.dtd">
<!-- Generated by graphviz version 2.38.0 (20140413.2041)
 -->
<!-- Title: db Pages: 1 -->
<svg width="995pt" height="794pt"
 viewBox="0.00 0.00 995.36 794.00" xmlns="http://www.w3.org/2000/svg" xmlns:xlink="http://www.w3.org/1999/xlink">
<g id="graph0" class="graph" transform="scale(1 1) rotate(0) translate(4 790)">
<title>db</title>
<polygon fill="white" stroke="none" points="-4,4 -4,-790 991.359,-790 991.359,4 -4,4"/>
<!-- user -->
<g id="node1" class="node"><title>user</title>
<polygon fill="grey" stroke="none" points="297.359,-757.5 297.359,-778.5 375.359,-778.5 375.359,-757.5 297.359,-757.5"/>
<polygon fill="none" stroke="black" points="297.359,-757.5 297.359,-778.5 375.359,-778.5 375.359,-757.5 297.359,-757.5"/>
<text text-anchor="start" x="320.859" y="-764.3" font-family="Times,serif" font-size="14.00">Users</text>
<polygon fill="none" stroke="black" points="297.359,-734.5 297.359,-755.5 375.359,-755.5 375.359,-734.5 297.359,-734.5"/>
<text text-anchor="start" x="316.359" y="-741.3" font-family="Times,serif" font-size="14.00">UserID</text>
<polygon fill="none" stroke="black" points="297.359,-711.5 297.359,-732.5 375.359,-732.5 375.359,-711.5 297.359,-711.5"/>
<text text-anchor="start" x="308.359" y="-718.3" font-family="Times,serif" font-size="14.00">Username</text>
<polygon fill="none" stroke="black" points="297.359,-688.5 297.359,-709.5 375.359,-709.5 375.359,-688.5 297.359,-688.5"/>
<text text-anchor="start" x="305.359" y="-695.3" font-family="Times,serif" font-size="14.00">hashedPass</text>
<polygon fill="none" stroke="black" points="297.359,-665.5 297.359,-686.5 375.359,-686.5 375.359,-665.5 297.359,-665.5"/>
<text text-anchor="start" x="300.359" y="-672.3" font-family="Times,serif" font-size="14.00">[account Ids]</text>
<polygon fill="none" stroke="black" points="294.359,-663 294.359,-782 378.359,-782 378.359,-663 294.359,-663"/>
</g>
<!-- session -->
<g id="node2" class="node"><title>session</title>
<polygon fill="grey" stroke="none" points="91.3593,-534 91.3593,-555 153.359,-555 153.359,-534 91.3593,-534"/>
<polygon fill="none" stroke="black" points="91.3593,-534 91.3593,-555 153.359,-555 153.359,-534 91.3593,-534"/>
<text text-anchor="start" x="98.8593" y="-540.8" font-family="Times,serif" font-size="14.00">Sessions</text>
<polygon fill="none" stroke="black" points="91.3593,-511 91.3593,-532 153.359,-532 153.359,-511 91.3593,-511"/>
<text text-anchor="start" x="94.3593" y="-517.8" font-family="Times,serif" font-size="14.00">SessionID</text>
<polygon fill="none" stroke="black" points="91.3593,-488 91.3593,-509 153.359,-509 153.359,-488 91.3593,-488"/>
<text text-anchor="start" x="106.859" y="-494.8" font-family="Times,serif" font-size="14.00">token</text>
<polygon fill="none" stroke="black" points="91.3593,-465 91.3593,-486 153.359,-486 153.359,-465 91.3593,-465"/>
<text text-anchor="start" x="107.359" y="-471.8" font-family="Times,serif" font-size="14.00">value</text>
<polygon fill="none" stroke="black" points="88.3593,-462 88.3593,-558 156.359,-558 156.359,-462 88.3593,-462"/>
</g>
<!-- user&#45;&gt;session -->
<g id="edge5" class="edge"><title>user:port4&#45;&gt;session:port3</title>
<path fill="none" stroke="black" d="M296.359,-698.5C244.537,-698.5 102.166,-681.913 70.3593,-641 48.6137,-613.029 -82.0968,-502.439 80.3021,-498.13"/>
<polygon fill="black" stroke="black" points="80.4052,-501.629 90.3593,-498 80.315,-494.629 80.4052,-501.629"/>
<text text-anchor="middle" x="111.859" y="-629.8" font-family="Times,serif" font-size="14.00">generatedFrom</text>
</g>
<!-- account -->
<g id="node4" class="node"><title>account</title>
<polygon fill="grey" stroke="none" points="412.359,-108.5 412.359,-129.5 528.359,-129.5 528.359,-108.5 412.359,-108.5"/>
<polygon fill="none" stroke="black" points="412.359,-108.5 412.359,-129.5 528.359,-129.5 528.359,-108.5 412.359,-108.5"/>
<text text-anchor="start" x="444.359" y="-115.3" font-family="Times,serif" font-size="14.00">Accounts</text>
<polygon fill="none" stroke="black" points="412.359,-85.5 412.359,-106.5 528.359,-106.5 528.359,-85.5 412.359,-85.5"/>
<text text-anchor="start" x="439.859" y="-92.3" font-family="Times,serif" font-size="14.00">AccountID</text>
<polygon fill="none" stroke="black" points="412.359,-62.5 412.359,-83.5 528.359,-83.5 528.359,-62.5 412.359,-62.5"/>
<text text-anchor="start" x="449.359" y="-69.3" font-family="Times,serif" font-size="14.00">balance</text>
<polygon fill="none" stroke="black" points="412.359,-29.5 412.359,-60.5 528.359,-60.5 528.359,-29.5 412.359,-29.5"/>
<polygon fill="none" stroke="black" points="417.359,-34.5 417.359,-55.5 479.359,-55.5 479.359,-34.5 417.359,-34.5"/>
<text text-anchor="start" x="420.359" y="-41.3" font-family="Times,serif" font-size="14.00">Username</text>
<polygon fill="none" stroke="black" points="481.359,-34.5 481.359,-55.5 523.359,-55.5 523.359,-34.5 481.359,-34.5"/>
<text text-anchor="start" x="484.359" y="-41.3" font-family="Times,serif" font-size="14.00">[roles]</text>
<polygon fill="none" stroke="black" points="412.359,-6.5 412.359,-27.5 528.359,-27.5 528.359,-6.5 412.359,-6.5"/>
<text text-anchor="start" x="434.359" y="-13.3" font-family="Times,serif" font-size="14.00">[account Ids]</text>
<polygon fill="none" stroke="black" points="409.359,-4 409.359,-133 531.359,-133 531.359,-4 409.359,-4"/>
</g>
<!-- user&#45;&gt;account -->
<g id="edge1" class="edge"><title>user:port5&#45;&gt;account:port2</title>
<path fill="none" stroke="black" d="M296.359,-675.5C233.426,-675.5 268.809,-456.839 265.359,-394 259.753,-291.87 313.611,-167.274 322.359,-155 347.794,-119.315 361.844,-99.5643 401.349,-96.8292"/>
<polygon fill="black" stroke="black" points="401.48,-100.327 411.359,-96.5 401.25,-93.3306 401.48,-100.327"/>
<text text-anchor="middle" x="289.859" y="-382.8" font-family="Times,serif" font-size="14.00">findById</text>
</g>
<!-- user&#45;&gt;account -->
<g id="edge2" class="edge"><title>user:port5&#45;&gt;account:port4</title>
<path fill="none" stroke="black" d="M336.359,-664.5C336.359,-529.242 275.775,-68.7161 401.175,-45.4172"/>
<polygon fill="black" stroke="black" points="401.714,-48.883 411.359,-44.5 401.086,-41.9112 401.714,-48.883"/>
<text text-anchor="middle" x="370.359" y="-382.8" font-family="Times,serif" font-size="14.00">findByUsername</text>
</g>
<!-- transactions -->
<g id="node5" class="node"><title>transactions</title>
<polygon fill="grey" stroke="none" points="452.359,-580 452.359,-601 537.359,-601 537.359,-580 452.359,-580"/>
<polygon fill="none" stroke="black" points="452.359,-580 452.359,-601 537.359,-601 537.359,-580 452.359,-580"/>
<text text-anchor="start" x="459.859" y="-586.8" font-family="Times,serif" font-size="14.00">Transactions</text>
<polygon fill="none" stroke="black" points="452.359,-557 452.359,-578 537.359,-578 537.359,-557 452.359,-557"/>
<text text-anchor="start" x="455.359" y="-563.8" font-family="Times,serif" font-size="14.00">TransactionID</text>
<polygon fill="none" stroke="black" points="452.359,-534 452.359,-555 537.359,-555 537.359,-534 452.359,-534"/>
<text text-anchor="start" x="477.859" y="-540.8" font-family="Times,serif" font-size="14.00">owner</text>
<polygon fill="none" stroke="black" points="452.359,-511 452.359,-532 537.359,-532 537.359,-511 452.359,-511"/>
<text text-anchor="start" x="489.359" y="-517.8" font-family="Times,serif" font-size="14.00">to</text>
<polygon fill="none" stroke="black" points="452.359,-488 452.359,-509 537.359,-509 537.359,-488 452.359,-488"/>
<text text-anchor="start" x="480.859" y="-494.8" font-family="Times,serif" font-size="14.00">from</text>
<polygon fill="none" stroke="black" points="452.359,-465 452.359,-486 537.359,-486 537.359,-465 452.359,-465"/>
<text text-anchor="start" x="476.359" y="-471.8" font-family="Times,serif" font-size="14.00">startAt</text>
<polygon fill="none" stroke="black" points="452.359,-442 452.359,-463 537.359,-463 537.359,-442 452.359,-442"/>
<text text-anchor="start" x="473.859" y="-448.8" font-family="Times,serif" font-size="14.00">amount</text>
<polygon fill="none" stroke="black" points="452.359,-419 452.359,-440 537.359,-440 537.359,-419 452.359,-419"/>
<text text-anchor="start" x="480.359" y="-425.8" font-family="Times,serif" font-size="14.00">notes</text>
<polygon fill="none" stroke="black" points="448.859,-416 448.859,-604 539.859,-604 539.859,-416 448.859,-416"/>
</g>
<!-- user&#45;&gt;transactions -->
<g id="edge3" class="edge"><title>user:port3&#45;&gt;transactions:port3</title>
<path fill="none" stroke="black" d="M376.359,-721.5C457.93,-721.5 373.997,-559.842 441.344,-545.95"/>
<polygon fill="black" stroke="black" points="441.734,-549.428 451.359,-545 441.074,-542.46 441.734,-549.428"/>
<text text-anchor="middle" x="461.359" y="-629.8" font-family="Times,serif" font-size="14.00">findByUsername</text>
</g>
<!-- history -->
<g id="node6" class="node"><title>history</title>
<polygon fill="grey" stroke="none" points="680.359,-321.5 680.359,-342.5 747.359,-342.5 747.359,-321.5 680.359,-321.5"/>
<polygon fill="none" stroke="black" points="680.359,-321.5 680.359,-342.5 747.359,-342.5 747.359,-321.5 680.359,-321.5"/>
<text text-anchor="start" x="693.359" y="-328.3" font-family="Times,serif" font-size="14.00">History</text>
<polygon fill="none" stroke="black" points="680.359,-298.5 680.359,-319.5 747.359,-319.5 747.359,-298.5 680.359,-298.5"/>
<text text-anchor="start" x="686.359" y="-305.3" font-family="Times,serif" font-size="14.00">HistoryID</text>
<polygon fill="none" stroke="black" points="680.359,-275.5 680.359,-296.5 747.359,-296.5 747.359,-275.5 680.359,-275.5"/>
<text text-anchor="start" x="683.359" y="-282.3" font-family="Times,serif" font-size="14.00">AccountID</text>
<polygon fill="none" stroke="black" points="680.359,-252.5 680.359,-273.5 747.359,-273.5 747.359,-252.5 680.359,-252.5"/>
<text text-anchor="start" x="683.359" y="-259.3" font-family="Times,serif" font-size="14.00">changedBy</text>
<polygon fill="none" stroke="black" points="680.359,-229.5 680.359,-250.5 747.359,-250.5 747.359,-229.5 680.359,-229.5"/>
<text text-anchor="start" x="692.859" y="-236.3" font-family="Times,serif" font-size="14.00">amount</text>
<polygon fill="none" stroke="black" points="680.359,-206.5 680.359,-227.5 747.359,-227.5 747.359,-206.5 680.359,-206.5"/>
<text text-anchor="start" x="702.359" y="-213.3" font-family="Times,serif" font-size="14.00">date</text>
<polygon fill="none" stroke="black" points="676.859,-203.5 676.859,-345.5 749.859,-345.5 749.859,-203.5 676.859,-203.5"/>
</g>
<!-- user&#45;&gt;history -->
<g id="edge4" class="edge"><title>user:port5&#45;&gt;history:port3</title>
<path fill="none" stroke="black" d="M376.359,-675.5C605.525,-675.5 712.123,-601.979 808.359,-394 831.242,-344.548 839.145,-290.871 758.622,-286.753"/>
<polygon fill="black" stroke="black" points="758.443,-283.248 748.359,-286.5 758.27,-290.245 758.443,-283.248"/>
<text text-anchor="middle" x="823.859" y="-506.3" font-family="Times,serif" font-size="14.00">findById</text>
</g>
<!-- session&#45;&gt;user -->
<g id="edge6" class="edge"><title>session:port4&#45;&gt;user:port3</title>
<path fill="none" stroke="black" d="M154.359,-475C228.782,-475 137.09,-577.781 176.359,-641 208.393,-692.571 229.707,-718.577 286.194,-721.267"/>
<polygon fill="black" stroke="black" points="286.282,-724.77 296.359,-721.5 286.442,-717.771 286.282,-724.77"/>
<text text-anchor="middle" x="213.359" y="-629.8" font-family="Times,serif" font-size="14.00">verifySession</text>
</g>
<!-- logging -->
<g id="node3" class="node"><title>logging</title>
<polygon fill="grey" stroke="none" points="90.3593,-332.5 90.3593,-353.5 154.359,-353.5 154.359,-332.5 90.3593,-332.5"/>
<polygon fill="none" stroke="black" points="90.3593,-332.5 90.3593,-353.5 154.359,-353.5 154.359,-332.5 90.3593,-332.5"/>
<text text-anchor="start" x="99.3593" y="-339.3" font-family="Times,serif" font-size="14.00">Logging</text>
<polygon fill="none" stroke="black" points="90.3593,-309.5 90.3593,-330.5 154.359,-330.5 154.359,-309.5 90.3593,-309.5"/>
<text text-anchor="start" x="93.3593" y="-316.3" font-family="Times,serif" font-size="14.00">LoggingId</text>
<polygon fill="none" stroke="black" points="90.3593,-286.5 90.3593,-307.5 154.359,-307.5 154.359,-286.5 90.3593,-286.5"/>
<text text-anchor="start" x="95.8593" y="-293.3" font-family="Times,serif" font-size="14.00">username</text>
<polygon fill="none" stroke="black" points="90.3593,-263.5 90.3593,-284.5 154.359,-284.5 154.359,-263.5 90.3593,-263.5"/>
<text text-anchor="start" x="97.8593" y="-270.3" font-family="Times,serif" font-size="14.00">postData</text>
<polygon fill="none" stroke="black" points="90.3593,-240.5 90.3593,-261.5 154.359,-261.5 154.359,-240.5 90.3593,-240.5"/>
<text text-anchor="start" x="93.3593" y="-247.3" font-family="Times,serif" font-size="14.00">requestUrl</text>
<polygon fill="none" stroke="black" points="90.3593,-217.5 90.3593,-238.5 154.359,-238.5 154.359,-217.5 90.3593,-217.5"/>
<text text-anchor="start" x="116.859" y="-224.3" font-family="Times,serif" font-size="14.00">ip</text>
<polygon fill="none" stroke="black" points="90.3593,-194.5 90.3593,-215.5 154.359,-215.5 154.359,-194.5 90.3593,-194.5"/>
<text text-anchor="start" x="110.859" y="-201.3" font-family="Times,serif" font-size="14.00">date</text>
<polygon fill="none" stroke="black" points="87.3593,-192 87.3593,-357 157.359,-357 157.359,-192 87.3593,-192"/>
</g>
<!-- session&#45;&gt;logging -->
<g id="edge7" class="edge"><title>session:port4&#45;&gt;logging:port3</title>
<path fill="none" stroke="black" d="M122.359,-464C122.359,-392.391 220.065,-306.708 165.468,-298.19"/>
<polygon fill="black" stroke="black" points="165.575,-294.69 155.359,-297.5 165.097,-301.673 165.575,-294.69"/>
<text text-anchor="middle" x="181.859" y="-382.8" font-family="Times,serif" font-size="14.00">logRequest</text>
</g>
<!-- account&#45;&gt;user -->
<g id="edge8" class="edge"><title>account:port4&#45;&gt;user:port3</title>
<path fill="none" stroke="black" d="M529.359,-44.5C818.03,-44.5 1031.25,-381.44 852.359,-608 786.945,-690.846 502.473,-719.801 386.398,-721.427"/>
<polygon fill="black" stroke="black" points="386.333,-717.927 376.359,-721.5 386.385,-724.927 386.333,-717.927"/>
<text text-anchor="middle" x="951.859" y="-382.8" font-family="Times,serif" font-size="14.00">verifyAccess</text>
</g>
<!-- transactions&#45;&gt;account -->
<g id="edge9" class="edge"><title>transactions:port4&#45;&gt;account:port2</title>
<path fill="none" stroke="black" d="M451.359,-522C387.185,-522 467.525,-432.013 431.359,-379 422.163,-365.52 407.597,-375.086 399.359,-361 360.542,-294.629 394.35,-264.726 399.359,-188 401.771,-151.069 376.206,-106.285 401.324,-97.8908"/>
<polygon fill="black" stroke="black" points="401.934,-101.34 411.359,-96.5 400.973,-94.4059 401.934,-101.34"/>
<text text-anchor="middle" x="423.859" y="-270.8" font-family="Times,serif" font-size="14.00">findById</text>
</g>
<!-- transactions&#45;&gt;account -->
<g id="edge10" class="edge"><title>transactions:port5&#45;&gt;account:port2</title>
<path fill="none" stroke="black" d="M451.359,-498C437.488,-498 458.236,-245.434 484.359,-188 496.754,-160.75 517.582,-164.929 528.359,-137 533.018,-124.926 540.798,-109.286 538.12,-101.444"/>
<polygon fill="black" stroke="black" points="539.788,-98.3662 529.359,-96.5 536.348,-104.463 539.788,-98.3662"/>
<text text-anchor="middle" x="508.859" y="-270.8" font-family="Times,serif" font-size="14.00">findById</text>
</g>
<!-- transactions&#45;&gt;account -->
<g id="edge11" class="edge"><title>transactions:port7&#45;&gt;account:port3</title>
<path fill="none" stroke="black" d="M538.359,-452C556.143,-452 543.622,-428.644 537.359,-412 533.692,-402.253 525.904,-403.792 522.359,-394 520.09,-387.732 520.554,-385.417 522.359,-379 524.899,-369.975 530.82,-370.025 533.359,-361 554.185,-286.985 534.702,-264.877 533.359,-188 532.54,-141.065 573.106,-83.3582 539.556,-74.628"/>
<polygon fill="black" stroke="black" points="539.684,-71.1208 529.359,-73.5 538.914,-78.0783 539.684,-71.1208"/>
<text text-anchor="middle" x="590.859" y="-270.8" font-family="Times,serif" font-size="14.00">(+/&#45;) modifies by</text>
</g>
<!-- transactions&#45;&gt;history -->
<g id="edge12" class="edge"><title>transactions:port4&#45;&gt;history:port3</title>
<path fill="none" stroke="black" d="M538.359,-522C587.25,-522 547.726,-459.779 537.359,-412 534.159,-397.252 519.478,-390.406 529.359,-379 566.111,-336.577 611.25,-396.945 654.359,-361 677.831,-341.429 652.628,-299.068 669.358,-288.784"/>
<polygon fill="black" stroke="black" points="670.389,-292.138 679.359,-286.5 668.831,-285.314 670.389,-292.138"/>
<text text-anchor="middle" x="564.859" y="-382.8" font-family="Times,serif" font-size="14.00">changed acct</text>
</g>
<!-- transactions&#45;&gt;history -->
<g id="edge13" class="edge"><title>transactions:port5&#45;&gt;history:port3</title>
<path fill="none" stroke="black" d="M538.359,-498C603.355,-498 575.288,-422.744 623.359,-379 635.143,-368.277 644.289,-373.346 654.359,-361 673.676,-337.319 651.589,-298.041 669.163,-288.591"/>
<polygon fill="black" stroke="black" points="670.266,-291.938 679.359,-286.5 668.86,-285.081 670.266,-291.938"/>
<text text-anchor="middle" x="658.859" y="-382.8" font-family="Times,serif" font-size="14.00">changed acct</text>
</g>
<!-- transactions&#45;&gt;history -->
<g id="edge14" class="edge"><title>transactions:port7&#45;&gt;history:port5</title>
<path fill="none" stroke="black" d="M538.359,-452C612.33,-452 630.433,-431.215 694.359,-394 707.65,-386.263 740.799,-363.409 747.359,-349.5 766.586,-308.736 792.764,-249.647 758.432,-240.663"/>
<polygon fill="black" stroke="black" points="758.695,-237.17 748.359,-239.5 757.892,-244.124 758.695,-237.17"/>
<text text-anchor="middle" x="761.859" y="-382.8" font-family="Times,serif" font-size="14.00">changed amount</text>
</g>
<!-- history&#45;&gt;account -->
<g id="edge15" class="edge"><title>history:port3&#45;&gt;account:port2</title>
<path fill="none" stroke="black" d="M679.359,-286.5C634.193,-286.5 679.628,-225.436 654.359,-188 617.797,-133.832 600.053,-100.056 539.461,-96.7648"/>
<polygon fill="black" stroke="black" points="539.448,-93.2634 529.359,-96.5 539.264,-100.261 539.448,-93.2634"/>
<text text-anchor="middle" x="666.859" y="-158.8" font-family="Times,serif" font-size="14.00">findById</text>
</g>
</g>
</svg>
